<svg width="256" height="128" viewBox="0 0 256 128" fill="none" xmlns="http://www.w3.org/2000/svg">
<path fill-rule="evenodd" clip-rule="evenodd" d="M118.835 53.402L137.715 34.5879C138.504 33.8016 139.793 33.8045 140.58 34.5937L158.393 52.467C159.179 53.2562 159.177 54.5457 158.387 55.332L139.508 74.1461L118.835 53.3992V53.402ZM135.753 50.0624C137.735 48.0866 140.943 48.0923 142.919 50.0738C144.894 52.0553 144.889 55.2634 142.907 57.2392C140.926 59.2149 137.718 59.2092 135.742 57.2277C133.766 55.2463 133.772 52.0381 135.753 50.0624Z" fill="#130032"/>
<path fill-rule="evenodd" clip-rule="evenodd" d="M121.491 71.6458C123.472 69.67 126.68 69.6757 128.656 71.6572C130.632 73.6387 130.626 76.8468 128.645 78.8226C126.663 80.7983 123.455 80.7926 121.479 78.8111C119.504 76.8297 119.509 73.6215 121.491 71.6458ZM106.657 71.6915C108.638 69.7158 111.846 69.7215 113.822 71.703C115.798 73.6844 115.792 76.8926 113.811 78.8683C111.829 80.8441 108.621 80.8384 106.645 78.8569C104.67 76.8754 104.675 73.6673 106.657 71.6915ZM98.5937 73.5758L117.474 54.7617L138.146 75.5087L119.266 94.3227C118.477 95.109 117.188 95.1062 116.401 94.317L98.5879 76.4408C97.8016 75.6516 97.8045 74.3621 98.5937 73.5758Z" fill="#130032"/>
<path d="M125.829 95V92.4666H124.866V92.0234H127.296V92.4666H126.327V95H125.832H125.829ZM127.628 95V92.0263H128.357L129.109 94.4024L129.835 92.0263H130.55V95H130.095V92.5038L129.329 95H128.88L128.08 92.4666V95H127.625H127.628Z" fill="#130032"/>
</svg>
